{"title":"Killers CAM V2.XVID.FEEL-FREE","uid":5640986,"size":935251279,"categoryP":"video","categoryS":"movies","magnet":"?xt=urn:btih:98fabfe12c24102aad32d7cd2cea27a4750ab258&amp;dn=Killers+CAM+V2.XVID.FEEL-FREE&amp;tr=udp%3A%2F%2Ftracker.openbittorrent.com%3A80&amp;tr=udp%3A%2F%2Fopen.demonii.com%3A1337&amp;tr=udp%3A%2F%2Ftracker.coppersurfer.tk%3A6969&amp;tr=udp%3A%2F%2Fexodus.desync.com%3A6969","seeders":0,"leechers":0,"uploader":"hiest","files":12,"time":1277106574,"description":"Genre:Action/Comedy/Romance/Thriller\nLanguage:English\nIMDb:http://www.imdb.com/title/tt1103153/\nSource Video:ELEKTRI4KA.Thanks\nSource Audio:IMAGiNE.Thanks\nEncoder: Tony2\n.............................................\nGeneral\nComplete name : Killers CAM V2.XVID.FEEL-FREE\nFormat : AVI\nFormat/Info : Audio Video Interleave\nFile size : 889 MiB\nDuration : 1h 33mn\nOverall bit rate : 1 333 Kbps\n..............................................\nVideo\nFormat : xvid\nCodec ID : xvid\nDuration : 1h 33mn\nBit rate : 1 196 Kbps\nWidth : 704 pixels\nHeight : 304 pixels\nDisplay aspect ratio : 2.35:1\nFrame rate : 25.000 fps\nResolution : 24 bits\nBits/(Pixel*Frame) : 0.223\nStream size : 797 MiB (90%)\n..............................................\nAudio\nID : 1\nFormat : MPEG Audio\nFormat version : Version 1\nFormat profile : Layer 3\nCodec ID : 55\nCodec ID/Hint : MP3\nDuration : 1h 33mn\nBit rate mode : Constant\nBit rate : 128 Kbps\nChannel(s) : 2 channels\nSampling rate : 44.1 KHz\nResolution : 16 bits\nStream size : 85.3 MiB (10%)\nAlignment : Split accross interleaves\nInterleave, duration : 40 ms (1.00 video frame)\nInterleave, preload duration : 500 ms\n.............................................\nPlot:\nA vacationing woman meets her ideal man, leading to a swift marriage. Back at home, however, their idyllic life is upset when they discover their neighbors could be assassins who have been contracted to kill the couple\n...................................................\nScreenshots\n &lt;a href=&quot;\nhttp://postimg.com/image/17000/16725.jpg&quot; rel=&quot;nofollow&quot; target=&quot;_NEW&quot;&gt;\nhttp://postimg.com/image/17000/16725.jpg&lt;/a&gt; &lt;a href=&quot;\nhttp://postimg.com/image/17000/16724.jpg&quot; rel=&quot;nofollow&quot; target=&quot;_NEW&quot;&gt;\nhttp://postimg.com/image/17000/16724.jpg&lt;/a&gt;\n\n..........................................................","torrent":{"xt":"urn:btih:98fabfe12c24102aad32d7cd2cea27a4750ab258","amp;dn":"Killers+CAM+V2.XVID.FEEL-FREE","amp;tr":["udp%3A%2F%2Ftracker.openbittorrent.com%3A80","udp%3A%2F%2Fopen.demonii.com%3A1337","udp%3A%2F%2Ftracker.coppersurfer.tk%3A6969","udp%3A%2F%2Fexodus.desync.com%3A6969"],"infoHash":"98fabfe12c24102aad32d7cd2cea27a4750ab258","infoHashBuffer":{"type":"Buffer","data":[152,250,191,225,44,36,16,42,173,50,215,205,44,234,39,164,117,10,178,88]},"announce":[],"urlList":[]}}